<mxfile host="Electron" modified="2023-11-07T16:21:21.817Z" agent="Mozilla/5.0 (Windows NT 10.0; Win64; x64) AppleWebKit/537.36 (KHTML, like Gecko) draw.io/22.0.3 Chrome/114.0.5735.289 Electron/25.8.4 Safari/537.36" etag="DA9Cus7oTEEzqbqlAX4A" version="22.0.3" type="device">
  <diagram name="Page-1" id="0L9DMvQs8QwBa-krf-lS">
    <mxGraphModel dx="1381" dy="1635" grid="1" gridSize="10" guides="1" tooltips="1" connect="1" arrows="1" fold="1" page="1" pageScale="1" pageWidth="1169" pageHeight="827" math="0" shadow="0">
      <root>
        <mxCell id="0" />
        <mxCell id="1" parent="0" />
        <mxCell id="sQr86B-Cl5qbUQiWlA_N-1" value="Ask for Login OR Signup" style="html=1;align=center;verticalAlign=middle;rounded=1;absoluteArcSize=1;arcSize=10;dashed=0;whiteSpace=wrap;" vertex="1" parent="1">
          <mxGeometry x="400" y="60" width="110" height="40" as="geometry" />
        </mxCell>
        <mxCell id="sQr86B-Cl5qbUQiWlA_N-2" value="" style="endArrow=classic;html=1;rounded=0;exitX=0.5;exitY=1;exitDx=0;exitDy=0;" edge="1" parent="1" source="sQr86B-Cl5qbUQiWlA_N-9">
          <mxGeometry width="50" height="50" relative="1" as="geometry">
            <mxPoint x="50" y="414" as="sourcePoint" />
            <mxPoint x="315" y="370" as="targetPoint" />
          </mxGeometry>
        </mxCell>
        <mxCell id="sQr86B-Cl5qbUQiWlA_N-3" value="" style="endArrow=classic;html=1;rounded=0;exitX=0;exitY=0.5;exitDx=0;exitDy=0;" edge="1" parent="1" source="sQr86B-Cl5qbUQiWlA_N-6">
          <mxGeometry width="50" height="50" relative="1" as="geometry">
            <mxPoint x="500" y="340" as="sourcePoint" />
            <mxPoint x="320" y="280" as="targetPoint" />
            <Array as="points">
              <mxPoint x="320" y="190" />
            </Array>
          </mxGeometry>
        </mxCell>
        <mxCell id="sQr86B-Cl5qbUQiWlA_N-8" value="Login" style="edgeLabel;html=1;align=center;verticalAlign=middle;resizable=0;points=[];" vertex="1" connectable="0" parent="sQr86B-Cl5qbUQiWlA_N-3">
          <mxGeometry x="-0.3449" y="-2" relative="1" as="geometry">
            <mxPoint x="6" y="-8" as="offset" />
          </mxGeometry>
        </mxCell>
        <mxCell id="sQr86B-Cl5qbUQiWlA_N-4" value="" style="endArrow=classic;html=1;rounded=0;exitX=1;exitY=0.5;exitDx=0;exitDy=0;" edge="1" parent="1" source="sQr86B-Cl5qbUQiWlA_N-6">
          <mxGeometry width="50" height="50" relative="1" as="geometry">
            <mxPoint x="500" y="340" as="sourcePoint" />
            <mxPoint x="580" y="280" as="targetPoint" />
            <Array as="points">
              <mxPoint x="580" y="190" />
            </Array>
          </mxGeometry>
        </mxCell>
        <mxCell id="sQr86B-Cl5qbUQiWlA_N-5" value="" style="endArrow=classic;html=1;rounded=0;exitX=0.5;exitY=1;exitDx=0;exitDy=0;" edge="1" parent="1" source="sQr86B-Cl5qbUQiWlA_N-1">
          <mxGeometry width="50" height="50" relative="1" as="geometry">
            <mxPoint x="500" y="340" as="sourcePoint" />
            <mxPoint x="455" y="150" as="targetPoint" />
          </mxGeometry>
        </mxCell>
        <mxCell id="sQr86B-Cl5qbUQiWlA_N-6" value="Check ?" style="rhombus;whiteSpace=wrap;html=1;" vertex="1" parent="1">
          <mxGeometry x="415" y="150" width="80" height="80" as="geometry" />
        </mxCell>
        <mxCell id="sQr86B-Cl5qbUQiWlA_N-7" value="Signup" style="text;html=1;align=center;verticalAlign=middle;resizable=0;points=[];autosize=1;strokeColor=none;fillColor=none;" vertex="1" parent="1">
          <mxGeometry x="510" y="168" width="60" height="30" as="geometry" />
        </mxCell>
        <mxCell id="sQr86B-Cl5qbUQiWlA_N-9" value="Enter Username and Password" style="rounded=1;whiteSpace=wrap;html=1;" vertex="1" parent="1">
          <mxGeometry x="260" y="280" width="110" height="40" as="geometry" />
        </mxCell>
        <mxCell id="sQr86B-Cl5qbUQiWlA_N-10" value="Enter Info" style="rounded=1;whiteSpace=wrap;html=1;" vertex="1" parent="1">
          <mxGeometry x="520" y="280" width="110" height="40" as="geometry" />
        </mxCell>
        <mxCell id="sQr86B-Cl5qbUQiWlA_N-11" value="" style="rhombus;whiteSpace=wrap;html=1;" vertex="1" parent="1">
          <mxGeometry x="282.5" y="370" width="65" height="60" as="geometry" />
        </mxCell>
        <mxCell id="sQr86B-Cl5qbUQiWlA_N-12" value="" style="endArrow=classic;html=1;rounded=0;exitX=0.5;exitY=1;exitDx=0;exitDy=0;" edge="1" parent="1" source="sQr86B-Cl5qbUQiWlA_N-10">
          <mxGeometry width="50" height="50" relative="1" as="geometry">
            <mxPoint x="500" y="340" as="sourcePoint" />
            <mxPoint x="575" y="370" as="targetPoint" />
          </mxGeometry>
        </mxCell>
        <mxCell id="sQr86B-Cl5qbUQiWlA_N-13" value="" style="endArrow=classic;html=1;rounded=0;exitX=0;exitY=0.5;exitDx=0;exitDy=0;" edge="1" parent="1" source="sQr86B-Cl5qbUQiWlA_N-11">
          <mxGeometry width="50" height="50" relative="1" as="geometry">
            <mxPoint x="500" y="340" as="sourcePoint" />
            <mxPoint x="240" y="470" as="targetPoint" />
            <Array as="points">
              <mxPoint x="240" y="400" />
            </Array>
          </mxGeometry>
        </mxCell>
        <mxCell id="sQr86B-Cl5qbUQiWlA_N-14" value="" style="endArrow=classic;html=1;rounded=0;exitX=1;exitY=0.5;exitDx=0;exitDy=0;" edge="1" parent="1" source="sQr86B-Cl5qbUQiWlA_N-11">
          <mxGeometry width="50" height="50" relative="1" as="geometry">
            <mxPoint x="500" y="340" as="sourcePoint" />
            <mxPoint x="390" y="470" as="targetPoint" />
            <Array as="points">
              <mxPoint x="390" y="400" />
            </Array>
          </mxGeometry>
        </mxCell>
        <mxCell id="sQr86B-Cl5qbUQiWlA_N-15" value="verify password" style="rounded=1;whiteSpace=wrap;html=1;" vertex="1" parent="1">
          <mxGeometry x="347.5" y="470" width="82.5" height="40" as="geometry" />
        </mxCell>
        <mxCell id="sQr86B-Cl5qbUQiWlA_N-16" value="Verify name&amp;nbsp;" style="rounded=1;whiteSpace=wrap;html=1;" vertex="1" parent="1">
          <mxGeometry x="215" y="470" width="67.5" height="40" as="geometry" />
        </mxCell>
        <mxCell id="sQr86B-Cl5qbUQiWlA_N-17" value="Verify Info" style="rounded=1;whiteSpace=wrap;html=1;" vertex="1" parent="1">
          <mxGeometry x="620" y="470" width="70" height="40" as="geometry" />
        </mxCell>
        <mxCell id="sQr86B-Cl5qbUQiWlA_N-18" value="Set up paswword" style="rounded=1;whiteSpace=wrap;html=1;" vertex="1" parent="1">
          <mxGeometry x="460" y="470" width="90" height="40" as="geometry" />
        </mxCell>
        <mxCell id="sQr86B-Cl5qbUQiWlA_N-19" value="" style="rhombus;whiteSpace=wrap;html=1;" vertex="1" parent="1">
          <mxGeometry x="546.25" y="370" width="57.5" height="60" as="geometry" />
        </mxCell>
        <mxCell id="sQr86B-Cl5qbUQiWlA_N-20" value="" style="endArrow=classic;html=1;rounded=0;exitX=0.5;exitY=1;exitDx=0;exitDy=0;entryX=0;entryY=0.5;entryDx=0;entryDy=0;" edge="1" parent="1" source="sQr86B-Cl5qbUQiWlA_N-16" target="sQr86B-Cl5qbUQiWlA_N-25">
          <mxGeometry width="50" height="50" relative="1" as="geometry">
            <mxPoint x="282.5" y="630" as="sourcePoint" />
            <mxPoint x="290" y="590" as="targetPoint" />
            <Array as="points">
              <mxPoint x="249" y="595" />
            </Array>
          </mxGeometry>
        </mxCell>
        <mxCell id="sQr86B-Cl5qbUQiWlA_N-21" value="" style="endArrow=classic;html=1;rounded=0;exitX=0;exitY=0.5;exitDx=0;exitDy=0;entryX=0.5;entryY=0;entryDx=0;entryDy=0;" edge="1" parent="1" source="sQr86B-Cl5qbUQiWlA_N-19" target="sQr86B-Cl5qbUQiWlA_N-18">
          <mxGeometry width="50" height="50" relative="1" as="geometry">
            <mxPoint x="540" y="390" as="sourcePoint" />
            <mxPoint x="470" y="390" as="targetPoint" />
            <Array as="points">
              <mxPoint x="510" y="400" />
            </Array>
          </mxGeometry>
        </mxCell>
        <mxCell id="sQr86B-Cl5qbUQiWlA_N-22" value="" style="endArrow=classic;html=1;rounded=0;exitX=1;exitY=0.5;exitDx=0;exitDy=0;entryX=0.411;entryY=0.005;entryDx=0;entryDy=0;entryPerimeter=0;" edge="1" parent="1" source="sQr86B-Cl5qbUQiWlA_N-19" target="sQr86B-Cl5qbUQiWlA_N-17">
          <mxGeometry width="50" height="50" relative="1" as="geometry">
            <mxPoint x="500" y="450" as="sourcePoint" />
            <mxPoint x="650" y="460" as="targetPoint" />
            <Array as="points">
              <mxPoint x="650" y="400" />
            </Array>
          </mxGeometry>
        </mxCell>
        <mxCell id="sQr86B-Cl5qbUQiWlA_N-24" value="" style="rhombus;whiteSpace=wrap;html=1;" vertex="1" parent="1">
          <mxGeometry x="555" y="550" width="60" height="70" as="geometry" />
        </mxCell>
        <mxCell id="sQr86B-Cl5qbUQiWlA_N-25" value="" style="rhombus;whiteSpace=wrap;html=1;" vertex="1" parent="1">
          <mxGeometry x="290" y="560" width="60" height="70" as="geometry" />
        </mxCell>
        <mxCell id="sQr86B-Cl5qbUQiWlA_N-26" value="" style="endArrow=classic;html=1;rounded=0;exitX=0.5;exitY=1;exitDx=0;exitDy=0;entryX=1;entryY=0.5;entryDx=0;entryDy=0;" edge="1" parent="1" source="sQr86B-Cl5qbUQiWlA_N-24" target="sQr86B-Cl5qbUQiWlA_N-58">
          <mxGeometry width="50" height="50" relative="1" as="geometry">
            <mxPoint x="420" y="470" as="sourcePoint" />
            <mxPoint x="740" y="50" as="targetPoint" />
            <Array as="points">
              <mxPoint x="585" y="640" />
              <mxPoint x="750" y="640" />
              <mxPoint x="750" y="5" />
            </Array>
          </mxGeometry>
        </mxCell>
        <mxCell id="sQr86B-Cl5qbUQiWlA_N-27" value="" style="endArrow=classic;html=1;rounded=0;exitX=0.5;exitY=1;exitDx=0;exitDy=0;" edge="1" parent="1" source="sQr86B-Cl5qbUQiWlA_N-25">
          <mxGeometry width="50" height="50" relative="1" as="geometry">
            <mxPoint x="420" y="470" as="sourcePoint" />
            <mxPoint x="320" y="670" as="targetPoint" />
          </mxGeometry>
        </mxCell>
        <mxCell id="sQr86B-Cl5qbUQiWlA_N-28" value="" style="endArrow=classic;html=1;rounded=0;entryX=1;entryY=0.5;entryDx=0;entryDy=0;exitX=0.5;exitY=1;exitDx=0;exitDy=0;" edge="1" parent="1" source="sQr86B-Cl5qbUQiWlA_N-15" target="sQr86B-Cl5qbUQiWlA_N-25">
          <mxGeometry width="50" height="50" relative="1" as="geometry">
            <mxPoint x="420" y="470" as="sourcePoint" />
            <mxPoint x="470" y="420" as="targetPoint" />
            <Array as="points">
              <mxPoint x="389" y="595" />
            </Array>
          </mxGeometry>
        </mxCell>
        <mxCell id="sQr86B-Cl5qbUQiWlA_N-29" value="" style="endArrow=classic;html=1;rounded=0;entryX=1;entryY=0.5;entryDx=0;entryDy=0;exitX=0.5;exitY=1;exitDx=0;exitDy=0;" edge="1" parent="1" source="sQr86B-Cl5qbUQiWlA_N-17" target="sQr86B-Cl5qbUQiWlA_N-24">
          <mxGeometry width="50" height="50" relative="1" as="geometry">
            <mxPoint x="420" y="470" as="sourcePoint" />
            <mxPoint x="470" y="420" as="targetPoint" />
            <Array as="points">
              <mxPoint x="655" y="585" />
            </Array>
          </mxGeometry>
        </mxCell>
        <mxCell id="sQr86B-Cl5qbUQiWlA_N-30" value="" style="endArrow=classic;html=1;rounded=0;entryX=0;entryY=0.5;entryDx=0;entryDy=0;exitX=0.5;exitY=1;exitDx=0;exitDy=0;" edge="1" parent="1" source="sQr86B-Cl5qbUQiWlA_N-18" target="sQr86B-Cl5qbUQiWlA_N-24">
          <mxGeometry width="50" height="50" relative="1" as="geometry">
            <mxPoint x="420" y="470" as="sourcePoint" />
            <mxPoint x="470" y="420" as="targetPoint" />
            <Array as="points">
              <mxPoint x="510" y="585" />
            </Array>
          </mxGeometry>
        </mxCell>
        <mxCell id="sQr86B-Cl5qbUQiWlA_N-31" value="Order food" style="rounded=1;whiteSpace=wrap;html=1;" vertex="1" parent="1">
          <mxGeometry x="270" y="670" width="100" height="40" as="geometry" />
        </mxCell>
        <mxCell id="sQr86B-Cl5qbUQiWlA_N-34" value="Order Comformation&lt;br&gt;?" style="rhombus;whiteSpace=wrap;html=1;" vertex="1" parent="1">
          <mxGeometry x="268.75" y="760" width="102.5" height="110" as="geometry" />
        </mxCell>
        <mxCell id="sQr86B-Cl5qbUQiWlA_N-35" value="" style="endArrow=classic;html=1;rounded=0;exitX=0.5;exitY=1;exitDx=0;exitDy=0;entryX=0.5;entryY=0;entryDx=0;entryDy=0;" edge="1" parent="1" source="sQr86B-Cl5qbUQiWlA_N-31" target="sQr86B-Cl5qbUQiWlA_N-34">
          <mxGeometry width="50" height="50" relative="1" as="geometry">
            <mxPoint x="440" y="720" as="sourcePoint" />
            <mxPoint x="490" y="670" as="targetPoint" />
          </mxGeometry>
        </mxCell>
        <mxCell id="sQr86B-Cl5qbUQiWlA_N-36" value="Cancle&amp;nbsp;" style="rounded=1;whiteSpace=wrap;html=1;" vertex="1" parent="1">
          <mxGeometry x="100" y="900" width="120" height="60" as="geometry" />
        </mxCell>
        <mxCell id="sQr86B-Cl5qbUQiWlA_N-37" value="Payment" style="rounded=1;whiteSpace=wrap;html=1;" vertex="1" parent="1">
          <mxGeometry x="520" y="965" width="90" height="55" as="geometry" />
        </mxCell>
        <mxCell id="sQr86B-Cl5qbUQiWlA_N-38" value="" style="endArrow=classic;html=1;rounded=0;exitX=1;exitY=0.5;exitDx=0;exitDy=0;" edge="1" parent="1" source="sQr86B-Cl5qbUQiWlA_N-34">
          <mxGeometry width="50" height="50" relative="1" as="geometry">
            <mxPoint x="440" y="720" as="sourcePoint" />
            <mxPoint x="505" y="900" as="targetPoint" />
            <Array as="points">
              <mxPoint x="505" y="815" />
            </Array>
          </mxGeometry>
        </mxCell>
        <mxCell id="sQr86B-Cl5qbUQiWlA_N-39" value="" style="endArrow=classic;html=1;rounded=0;exitX=0;exitY=0.5;exitDx=0;exitDy=0;entryX=0.5;entryY=0;entryDx=0;entryDy=0;" edge="1" parent="1" source="sQr86B-Cl5qbUQiWlA_N-34" target="sQr86B-Cl5qbUQiWlA_N-36">
          <mxGeometry width="50" height="50" relative="1" as="geometry">
            <mxPoint x="440" y="720" as="sourcePoint" />
            <mxPoint x="490" y="670" as="targetPoint" />
            <Array as="points">
              <mxPoint x="160" y="815" />
            </Array>
          </mxGeometry>
        </mxCell>
        <mxCell id="sQr86B-Cl5qbUQiWlA_N-40" value="No" style="text;html=1;align=center;verticalAlign=middle;resizable=0;points=[];autosize=1;strokeColor=none;fillColor=none;" vertex="1" parent="1">
          <mxGeometry x="200" y="780" width="40" height="30" as="geometry" />
        </mxCell>
        <mxCell id="sQr86B-Cl5qbUQiWlA_N-41" value="Yes" style="text;html=1;align=center;verticalAlign=middle;resizable=0;points=[];autosize=1;strokeColor=none;fillColor=none;" vertex="1" parent="1">
          <mxGeometry x="415" y="780" width="40" height="30" as="geometry" />
        </mxCell>
        <mxCell id="sQr86B-Cl5qbUQiWlA_N-42" value="" style="html=1;points=[];perimeter=orthogonalPerimeter;fillColor=strokeColor;direction=south;" vertex="1" parent="1">
          <mxGeometry x="490" y="1110" width="490" height="5" as="geometry" />
        </mxCell>
        <mxCell id="sQr86B-Cl5qbUQiWlA_N-43" value="" style="html=1;points=[];perimeter=orthogonalPerimeter;fillColor=strokeColor;direction=south;" vertex="1" parent="1">
          <mxGeometry x="466.25" y="900" width="513.75" height="5" as="geometry" />
        </mxCell>
        <mxCell id="sQr86B-Cl5qbUQiWlA_N-45" value="Packing Food" style="rounded=1;whiteSpace=wrap;html=1;" vertex="1" parent="1">
          <mxGeometry x="820" y="965" width="100" height="55" as="geometry" />
        </mxCell>
        <mxCell id="sQr86B-Cl5qbUQiWlA_N-46" value="Send Conformation Message" style="rounded=1;whiteSpace=wrap;html=1;" vertex="1" parent="1">
          <mxGeometry x="660" y="965" width="100" height="55" as="geometry" />
        </mxCell>
        <mxCell id="sQr86B-Cl5qbUQiWlA_N-47" value="" style="endArrow=classic;html=1;rounded=0;exitX=0.5;exitY=1;exitDx=0;exitDy=0;entryX=0;entryY=0.5;entryDx=0;entryDy=0;" edge="1" parent="1" source="sQr86B-Cl5qbUQiWlA_N-36" target="sQr86B-Cl5qbUQiWlA_N-55">
          <mxGeometry width="50" height="50" relative="1" as="geometry">
            <mxPoint x="440" y="1030" as="sourcePoint" />
            <mxPoint x="160" y="1210" as="targetPoint" />
            <Array as="points">
              <mxPoint x="160" y="1180" />
            </Array>
          </mxGeometry>
        </mxCell>
        <mxCell id="sQr86B-Cl5qbUQiWlA_N-48" value="" style="endArrow=classic;html=1;rounded=0;exitX=0;exitY=0.714;exitDx=0;exitDy=0;exitPerimeter=0;entryX=1;entryY=0.5;entryDx=0;entryDy=0;" edge="1" parent="1" source="sQr86B-Cl5qbUQiWlA_N-42" target="sQr86B-Cl5qbUQiWlA_N-55">
          <mxGeometry width="50" height="50" relative="1" as="geometry">
            <mxPoint x="440" y="1030" as="sourcePoint" />
            <mxPoint x="400" y="1180" as="targetPoint" />
            <Array as="points">
              <mxPoint x="630" y="1180" />
            </Array>
          </mxGeometry>
        </mxCell>
        <mxCell id="sQr86B-Cl5qbUQiWlA_N-49" value="" style="endArrow=classic;html=1;rounded=0;exitX=0.5;exitY=1;exitDx=0;exitDy=0;entryX=0.667;entryY=0.223;entryDx=0;entryDy=0;entryPerimeter=0;" edge="1" parent="1" source="sQr86B-Cl5qbUQiWlA_N-45" target="sQr86B-Cl5qbUQiWlA_N-42">
          <mxGeometry width="50" height="50" relative="1" as="geometry">
            <mxPoint x="440" y="1030" as="sourcePoint" />
            <mxPoint x="490" y="980" as="targetPoint" />
          </mxGeometry>
        </mxCell>
        <mxCell id="sQr86B-Cl5qbUQiWlA_N-50" value="" style="endArrow=classic;html=1;rounded=0;exitX=0.5;exitY=1;exitDx=0;exitDy=0;entryX=0.453;entryY=0.547;entryDx=0;entryDy=0;entryPerimeter=0;" edge="1" parent="1" source="sQr86B-Cl5qbUQiWlA_N-46" target="sQr86B-Cl5qbUQiWlA_N-42">
          <mxGeometry width="50" height="50" relative="1" as="geometry">
            <mxPoint x="440" y="1030" as="sourcePoint" />
            <mxPoint x="490" y="980" as="targetPoint" />
          </mxGeometry>
        </mxCell>
        <mxCell id="sQr86B-Cl5qbUQiWlA_N-51" value="" style="endArrow=classic;html=1;rounded=0;exitX=0.5;exitY=1;exitDx=0;exitDy=0;entryX=0.24;entryY=0.846;entryDx=0;entryDy=0;entryPerimeter=0;" edge="1" parent="1" source="sQr86B-Cl5qbUQiWlA_N-37" target="sQr86B-Cl5qbUQiWlA_N-42">
          <mxGeometry width="50" height="50" relative="1" as="geometry">
            <mxPoint x="440" y="1030" as="sourcePoint" />
            <mxPoint x="490" y="980" as="targetPoint" />
          </mxGeometry>
        </mxCell>
        <mxCell id="sQr86B-Cl5qbUQiWlA_N-52" value="" style="endArrow=classic;html=1;rounded=0;exitX=-0.213;exitY=0.217;exitDx=0;exitDy=0;exitPerimeter=0;entryX=0.5;entryY=0;entryDx=0;entryDy=0;" edge="1" parent="1" source="sQr86B-Cl5qbUQiWlA_N-43" target="sQr86B-Cl5qbUQiWlA_N-45">
          <mxGeometry width="50" height="50" relative="1" as="geometry">
            <mxPoint x="440" y="1030" as="sourcePoint" />
            <mxPoint x="490" y="980" as="targetPoint" />
          </mxGeometry>
        </mxCell>
        <mxCell id="sQr86B-Cl5qbUQiWlA_N-53" value="" style="endArrow=classic;html=1;rounded=0;exitX=0.213;exitY=0.524;exitDx=0;exitDy=0;exitPerimeter=0;entryX=0.5;entryY=0;entryDx=0;entryDy=0;" edge="1" parent="1" source="sQr86B-Cl5qbUQiWlA_N-43" target="sQr86B-Cl5qbUQiWlA_N-46">
          <mxGeometry width="50" height="50" relative="1" as="geometry">
            <mxPoint x="440" y="1030" as="sourcePoint" />
            <mxPoint x="490" y="980" as="targetPoint" />
          </mxGeometry>
        </mxCell>
        <mxCell id="sQr86B-Cl5qbUQiWlA_N-54" value="" style="endArrow=classic;html=1;rounded=0;exitX=0.213;exitY=0.809;exitDx=0;exitDy=0;exitPerimeter=0;entryX=0.5;entryY=0;entryDx=0;entryDy=0;" edge="1" parent="1" source="sQr86B-Cl5qbUQiWlA_N-43" target="sQr86B-Cl5qbUQiWlA_N-37">
          <mxGeometry width="50" height="50" relative="1" as="geometry">
            <mxPoint x="440" y="1030" as="sourcePoint" />
            <mxPoint x="570" y="960" as="targetPoint" />
          </mxGeometry>
        </mxCell>
        <mxCell id="sQr86B-Cl5qbUQiWlA_N-55" value="" style="rhombus;whiteSpace=wrap;html=1;" vertex="1" parent="1">
          <mxGeometry x="320" y="1140" width="80" height="80" as="geometry" />
        </mxCell>
        <mxCell id="sQr86B-Cl5qbUQiWlA_N-56" value="" style="endArrow=classic;html=1;rounded=0;exitX=0.5;exitY=1;exitDx=0;exitDy=0;" edge="1" parent="1" source="sQr86B-Cl5qbUQiWlA_N-55">
          <mxGeometry width="50" height="50" relative="1" as="geometry">
            <mxPoint x="440" y="1110" as="sourcePoint" />
            <mxPoint x="360" y="1280" as="targetPoint" />
          </mxGeometry>
        </mxCell>
        <mxCell id="sQr86B-Cl5qbUQiWlA_N-57" value="" style="ellipse;html=1;shape=endState;fillColor=strokeColor;" vertex="1" parent="1">
          <mxGeometry x="345" y="1280" width="30" height="30" as="geometry" />
        </mxCell>
        <mxCell id="sQr86B-Cl5qbUQiWlA_N-58" value="" style="ellipse;fillColor=strokeColor;html=1;" vertex="1" parent="1">
          <mxGeometry x="440" y="-10" width="30" height="30" as="geometry" />
        </mxCell>
        <mxCell id="sQr86B-Cl5qbUQiWlA_N-59" value="" style="endArrow=classic;html=1;rounded=0;exitX=0.5;exitY=1;exitDx=0;exitDy=0;entryX=0.5;entryY=0;entryDx=0;entryDy=0;" edge="1" parent="1" source="sQr86B-Cl5qbUQiWlA_N-58" target="sQr86B-Cl5qbUQiWlA_N-1">
          <mxGeometry width="50" height="50" relative="1" as="geometry">
            <mxPoint x="440" y="260" as="sourcePoint" />
            <mxPoint x="490" y="210" as="targetPoint" />
          </mxGeometry>
        </mxCell>
      </root>
    </mxGraphModel>
  </diagram>
</mxfile>
